<svg width="16" height="16" viewBox="0 0 16 16" fill="none" xmlns="http://www.w3.org/2000/svg">
<path d="M10.9998 4.21426C10.9998 4.13536 11.0638 4.0714 11.1426 4.0714H12.2855C12.3644 4.0714 12.4284 4.13536 12.4284 4.21426V5.21426C12.4284 5.29316 12.3644 5.35712 12.2855 5.35712H11.1426C11.0638 5.35712 10.9998 5.29316 10.9998 5.21426V4.21426Z" fill="white"/>
<path d="M3.71408 4.0714C3.63518 4.0714 3.57122 4.13536 3.57122 4.21426V5.21426C3.57122 5.29316 3.63518 5.35712 3.71408 5.35712H9.71408C9.79297 5.35712 9.85693 5.29316 9.85693 5.21426V4.21426C9.85693 4.13536 9.79297 4.0714 9.71408 4.0714H3.71408Z" fill="white"/>
<path d="M10.9998 7.49997C10.9998 7.42108 11.0638 7.35712 11.1426 7.35712H12.2855C12.3644 7.35712 12.4284 7.42108 12.4284 7.49997V8.49997C12.4284 8.57887 12.3644 8.64283 12.2855 8.64283H11.1426C11.0638 8.64283 10.9998 8.57887 10.9998 8.49997V7.49997Z" fill="white"/>
<path d="M3.71408 7.35712C3.63518 7.35712 3.57122 7.42108 3.57122 7.49997V8.49997C3.57122 8.57887 3.63518 8.64283 3.71408 8.64283H9.71408C9.79297 8.64283 9.85693 8.57887 9.85693 8.49997V7.49997C9.85693 7.42108 9.79297 7.35712 9.71408 7.35712H3.71408Z" fill="white"/>
<path d="M10.9998 10.7857C10.9998 10.7068 11.0638 10.6428 11.1426 10.6428H12.2855C12.3644 10.6428 12.4284 10.7068 12.4284 10.7857V11.7857C12.4284 11.8646 12.3644 11.9285 12.2855 11.9285H11.1426C11.0638 11.9285 10.9998 11.8646 10.9998 11.7857V10.7857Z" fill="white"/>
<path d="M3.71408 10.6428C3.63518 10.6428 3.57122 10.7068 3.57122 10.7857V11.7857C3.57122 11.8646 3.63518 11.9285 3.71408 11.9285H9.71408C9.79297 11.9285 9.85693 11.8646 9.85693 11.7857V10.7857C9.85693 10.7068 9.79297 10.6428 9.71408 10.6428H3.71408Z" fill="white"/>
<path fill-rule="evenodd" clip-rule="evenodd" d="M1.42836 0.857117C1.11277 0.857117 0.856934 1.11295 0.856934 1.42855V14.5714C0.856934 14.887 1.11277 15.1428 1.42836 15.1428H14.5712C14.8868 15.1428 15.1426 14.887 15.1426 14.5714V1.42855C15.1426 1.11295 14.8868 0.857117 14.5712 0.857117H1.42836ZM2.14265 2.14283V13.8571H13.8569V2.14283H2.14265Z" fill="white"/>
</svg>
