<svg xmlns="http://www.w3.org/2000/svg" xmlns:xlink="http://www.w3.org/1999/xlink" fill="none" version="1.1" width="16" height="16" viewBox="0 0 16 16"><defs><clipPath id="master_svg0_8_611"><rect x="0" y="0" width="16" height="16" rx="0"/></clipPath></defs><g clip-path="url(#master_svg0_8_611)"><g><path d="M8.79747,1.5119502558593751L10.96413,5.264732255859375C11.1482,5.583592255859375,11.03893,5.991312255859375,10.72007,6.175412255859375L9.853729999999999,6.674812255859375L10.52073,7.830142255859375L9.366,8.496812255859375L8.699,7.341472255859375L7.83333,7.842072255859375C7.51447,8.026142255859375,7.10673,7.916942255859375,6.92267,7.598082255859375L5.69747,5.476412255859375C4.329219999999999,5.891542255859375,3.33333,7.162812255859375,3.33333,8.666682255859374C3.33333,9.083542255859374,3.4098699999999997,9.482542255859375,3.5496499999999997,9.850412255859375C4.066129999999999,9.522682255859374,4.67762,9.333342255859375,5.33333,9.333342255859375C6.45605,9.333342255859375,7.44913,9.888412255859375,8.05313,10.739082255859374L13.1787,7.780272255859375L13.8454,8.934942255859376L8.5932,11.967262255859374C8.64133,12.192762255859375,8.66667,12.426762255859375,8.66667,12.666662255859375C8.66667,12.895162255859375,8.64367,13.118162255859374,8.59993,13.333762255859375L14,13.333362255859376L14,14.666662255859375L2.667027,14.667462255859375C2.2482,14.110162255859375,2,13.417362255859375,2,12.666662255859375C2,11.995162255859375,2.198547,11.370062255859375,2.54014,10.846762255859375C2.195173,10.196542255859375,2,9.454412255859374,2,8.666682255859374C2,6.669812255859375,3.25421,4.965842255859375,5.01785,4.299622255859375L4.75598,3.845282255859375C4.38779,3.207562255859375,4.6062899999999996,2.392112255859375,5.24402,2.0239122558593747L6.97607,1.023916255859375C7.6138,0.655728255859375,8.429269999999999,0.874229855859375,8.79747,1.5119502558593751ZM5.33333,10.666682255859374C4.22877,10.666682255859374,3.33333,11.562062255859376,3.33333,12.666662255859375C3.33333,12.900362255859376,3.37343,13.124762255859375,3.44711,13.333262255859376L7.21953,13.333262255859376C7.29327,13.124762255859375,7.33333,12.900362255859376,7.33333,12.666662255859375C7.33333,11.562062255859376,6.4379,10.666682255859374,5.33333,10.666682255859374ZM7.64273,2.178612255859375L5.91068,3.178612255859375L7.744,6.354042255859375L9.47607,5.354042255859375L7.64273,2.178612255859375Z" fill="#FFFFFF" fill-opacity="1"/></g></g></svg>